<?xml version="1.0" encoding="utf-8"?>
<!-- Generator: Adobe Illustrator 19.1.1, SVG Export Plug-In . SVG Version: 6.00 Build 0)  -->
<svg version="1.1" id="Layer_1" xmlns="http://www.w3.org/2000/svg" xmlns:xlink="http://www.w3.org/1999/xlink" x="0px" y="0px"
	 viewBox="-158.8 -20.4 599.5 600.8" style="enable-background:new -158.8 -20.4 599.5 600.8;" xml:space="preserve">
<style type="text/css">
	.st0{fill:#E9302E;}
	.st1{fill:#B2B2B2;}
	.st2{fill:#B52E31;}
	.st3{fill:#E23237;}
	.st4{fill:#F2F2F2;}
</style>
<path class="st0" d="M433,284.9H237.4c0.1-2.2,0.2-4.3,0.2-6.6c0-4.4-0.3-8.6-0.9-12.9h196.1c4.3,0,7.8-3.5,7.8-7.8
	s-3.5-7.8-7.8-7.8H233.4c-1.7-5.6-3.8-10.9-6.4-16h162.6c3.8,0,6.8-3.5,6.8-7.8s-3-7.8-6.8-7.8H217c-4.7-6.1-10.2-11.6-16.1-16.3
	v-171c0-3.7-3.5-6.7-7.8-6.7s-7.8,3-7.8,6.7v160.8c-5.1-2.6-10.4-4.8-16-6.4V-12.4c0-4.3-3.5-7.8-7.8-7.8s-7.8,3.5-7.8,7.8v194.3
	c-3.7-0.4-7.4-0.7-11.2-0.7c-2.8,0-5.5,0.1-8.2,0.4V-12.6c0-4.3-3.5-7.8-7.8-7.8s-7.8,3.5-7.8,7.8v196.9c-7.2,1.9-14.1,4.7-20.5,8.1
	V30.8c0-3.7-3.5-6.7-7.8-6.7s-7.8,3-7.8,6.7v172.3c-4.7,3.9-9.1,8.3-13,13.1h-177.1c-3.8,0-6.9,3.5-6.9,7.8s3.1,7.8,6.9,7.8H59.1
	c-2.7,5.1-5,10.4-6.8,16h-203.1c-4.4,0-7.9,3.5-7.9,7.8c0,4.3,3.5,7.8,7.9,7.8H48.6c-0.7,4.8-1.1,9.8-1.1,14.8c0,1.5,0,3.1,0.1,4.6
	h-198.5c-4.4,0-7.9,3.5-7.9,7.8s3.6,7.8,7.9,7.8H49.6c1.5,7.2,3.8,14,6.8,20.5h-164c-3.7,0-6.8,3.5-6.8,7.8s3,7.8,6.8,7.8h173
	c4.8,6.8,10.4,12.9,16.6,18.2c-0.1,0.3-0.1,0.7-0.1,1v175.1c0,3.8,3.5,6.8,7.8,6.8s7.8-3.1,7.8-6.8v-165c6.4,3.5,13.3,6.3,20.5,8.3
	v200.5c0,4.3,3.5,7.8,7.8,7.8s7.8-3.5,7.8-7.8V374.9c3,0.3,5.9,0.4,9,0.4c3.5,0,7-0.2,10.4-0.6v197.6c0,4.3,3.5,7.9,7.8,7.9
	s7.8-3.5,7.8-7.9V371.6c5.5-1.6,10.9-3.7,16-6.3v163.8c0,3.8,3.5,6.8,7.8,6.8c4.3,0,7.8-3.1,7.8-6.8V355.4
	c6.9-5.4,13-11.6,18.2-18.7h171.2c3.7,0,6.7-3.5,6.7-7.8s-3-7.8-6.7-7.8H227.8c3.1-6.5,5.6-13.4,7.2-20.5h197.9
	c4.3,0,7.8-3.5,7.8-7.8C440.8,288.4,437.3,284.9,433,284.9z M62.8,278.3c0-44.9,35.7-81.4,79.6-81.4s79.6,36.5,79.6,81.4
	s-35.7,81.4-79.6,81.4S62.8,323.2,62.8,278.3z"/>
<g id="AngularJS_Logo">
	<g>
		<g>
			<g>
				<path class="st1" d="M143.3,169L34.7,207.2l17.2,142.3l91.6,50.3l92-51l17.1-142.2L143.3,169z"/>
				<path class="st2" d="M241.8,214.8l-98.7-33.7v206.7l82.7-45.8L241.8,214.8z"/>
				<path class="st3" d="M46.9,215.4l14.7,127.3l81.5,45.2V181.1L46.9,215.4z"/>
				<path class="st4" d="M165.9,284l-22.7-47.4l-20,47.4H165.9L165.9,284z M174.6,303.9h-60.2l-13.5,33.7l-25,0.5l67.2-149.4
					L212.6,338h-23.2L174.6,303.9z"/>
				<path class="st1" d="M143.1,188.6l0.2,47.9L166,284h-22.8l-0.1,19.9h31.5l14.7,34.1l24,0.4L143.1,188.6z"/>
			</g>
		</g>
	</g>
</g>
</svg>
